# xmcd
#
# Track frame offsets:
#	150
#	14254
#	27513
#	42752
#	58270
#	73541
#	91655
#	104729
#	120315
#	134458
#	147965
#	161678
#	176790
#	187633
#	200232
#	213793
#	227535
#	242301
#	254354
#	266510
#	279137
#	293325
#	306342
#	319359
#	332642
#
# Disc length: 4625 seconds
#
# Revision: 1
# Processed by: cddbd v1.5.2PL0 Copyright (c) Steve Scherf et al.
# Submitted via: EZCDAudioConverter 6.0.5.1
#
DISCID=63120f19
DTITLE=Ronnie Milsap - 20-20 Vision/Night Things
DYEAR=2011
DGENRE=Country
TTITLE0=20-20 Vision
TTITLE1=Lovers, Friends and Strangers
TTITLE2=Not That I Care
TTITLE3=Lovesick Blues
TTITLE4=You Snap Your Fingers (And I'm Back In Your Hands)
TTITLE5=Looking Out My Window Through The Pain
TTITLE6=What Goes On When the Sun Goes Down
TTITLE7=You've Still Got a Place In My Heart
TTITLE8=I Got Home Just In Time to Say Goodbye
TTITLE9=(I'm a) Stand By My Woman Man
TTITLE10=(After Sweet Memories) Play Born to Lose Again
TTITLE11=Who'll Turn Out the Light (In Your World Tonight)
TTITLE12=Daydreams About Night Things
TTITLE13=I'm No Good at Goodbyes
TTITLE14=Just In Case
TTITLE15=Remind Me To Remind Me (I'm Leaving)
TTITLE16=Borrowed Angel
TTITLE17=Love Takes a Long Time to Die
TTITLE18=(Lying Here with) Linda on My Mind
TTITLE19=I'll Be There (If You Ever Want Me)
TTITLE20=Too Late to Worry, Too Blue to Cry
TTITLE21=The Busiest Memory in Town
TTITLE22=I'm Still Not Over You
TTITLE23=(I'd Be) A Legend in My Time
TTITLE24=Let My Love Be Your Pillow
EXTD=
EXTT0=
EXTT1=
EXTT2=
EXTT3=
EXTT4=
EXTT5=
EXTT6=
EXTT7=
EXTT8=
EXTT9=
EXTT10=
EXTT11=
EXTT12=
EXTT13=
EXTT14=
EXTT15=
EXTT16=
EXTT17=
EXTT18=
EXTT19=
EXTT20=
EXTT21=
EXTT22=
EXTT23=
EXTT24=
PLAYORDER=
